<?xml version="1.0" encoding="UTF-8" standalone="no"?>
<!-- Created with Inkscape (http://www.inkscape.org/) -->

<svg
   xmlns:dc="http://purl.org/dc/elements/1.1/"
   xmlns:cc="http://creativecommons.org/ns#"
   xmlns:rdf="http://www.w3.org/1999/02/22-rdf-syntax-ns#"
   xmlns:svg="http://www.w3.org/2000/svg"
   xmlns="http://www.w3.org/2000/svg"
   xmlns:sodipodi="http://sodipodi.sourceforge.net/DTD/sodipodi-0.dtd"
   xmlns:inkscape="http://www.inkscape.org/namespaces/inkscape"
   width="396.95477mm"
   height="191.8956mm"
   viewBox="0 0 396.95477 191.8956"
   version="1.1"
   id="svg8"
   inkscape:version="0.92.4 (5da689c313, 2019-01-14)"
   sodipodi:docname="pascal3d.svg"
   inkscape:export-filename="/home/fsanches/devel/misc/bubble-gen/pascal3d.png"
   inkscape:export-xdpi="105.89091"
   inkscape:export-ydpi="105.89091">
  <defs
     id="defs2">
    <clipPath
       clipPathUnits="userSpaceOnUse"
       id="clipPath85">
      <rect
         style="opacity:1;vector-effect:none;fill:none;fill-opacity:1;fill-rule:evenodd;stroke:#000000;stroke-width:0.11236282;stroke-linecap:round;stroke-linejoin:round;stroke-miterlimit:4;stroke-dasharray:none;stroke-dashoffset:0;stroke-opacity:1"
         id="rect87"
         width="423.7782"
         height="115.13494"
         x="-25.478798"
         y="-93.874855"
         ry="0.16254252" />
    </clipPath>
  </defs>
  <sodipodi:namedview
     id="base"
     pagecolor="#000000"
     bordercolor="#666666"
     borderopacity="1.0"
     inkscape:pageopacity="1"
     inkscape:pageshadow="2"
     inkscape:zoom="0.56788585"
     inkscape:cx="420.80984"
     inkscape:cy="362.62496"
     inkscape:document-units="mm"
     inkscape:current-layer="layer1"
     showgrid="false"
     showguides="true"
     inkscape:guide-bbox="true"
     inkscape:window-width="1024"
     inkscape:window-height="704"
     inkscape:window-x="0"
     inkscape:window-y="27"
     inkscape:window-maximized="1"
     fit-margin-bottom="10"
     fit-margin-top="10"
     fit-margin-left="10"
     fit-margin-right="10" />
  <metadata
     id="metadata5">
    <rdf:RDF>
      <cc:Work
         rdf:about="">
        <dc:format>image/svg+xml</dc:format>
        <dc:type
           rdf:resource="http://purl.org/dc/dcmitype/StillImage" />
        <dc:title></dc:title>
      </cc:Work>
    </rdf:RDF>
  </metadata>
  <g
     inkscape:label="Layer 1"
     inkscape:groupmode="layer"
     id="layer1"
     transform="translate(4.9592797,188.76955)">
    <path
       id="path984"
       style="opacity:1;fill:#ffffff;stroke:none;stroke-width:0.26458335"
       d="m 356.03515,-111.07605 c -4.95025,-2.11797 -8.50354,-2.1646 -12.32338,-0.0883 -5.53474,2.3889 -9.88469,1.61242 -12.51224,-2.06775 -15.43776,-21.62234 -11.37822,-48.26688 9.41041,-49.38189 5.18749,-0.27824 7.68692,4.11776 12.31669,3.78998 4.62307,-0.3273 7.74062,-4.2761 12.60176,-3.92887 5.8403,0.47222 8.70678,1.80616 11.62345,5.95201 -12.27892,9.1655 -8.90171,22.70233 1.77974,27.58844 -2.29668,6.41694 -5.07206,11.22981 -9.03019,15.44798 -3.89977,4.15597 -9.51357,4.55073 -13.86624,2.68843 z m -4.26085,-49.04154 c -0.79616,-9.07848 5.56884,-16.19961 12.6186,-18.47541 0.9275,9.86456 -6.65478,18.22429 -12.6186,18.47541 z m -204.70482,-2.65884 c -6.01754,0 -11.59214,3.25752 -14.57617,8.46875 -2.98404,5.21125 -2.98404,11.63446 0,16.8457 2.98403,5.21123 8.55863,8.4707 14.57617,8.4707 h 9.11914 9.11914 c 0.63846,0 1.21461,0.32114 1.5586,0.92188 0.34398,0.60072 0.34399,1.33871 0,1.93945 -0.34399,0.60074 -0.92014,0.92188 -1.5586,0.92188 H 130.298 v 15 h 35.00976 c 6.01755,0 11.59019,-3.25752 14.57422,-8.46875 2.98403,-5.21124 2.98404,-11.63446 0,-16.8457 -2.98402,-5.21124 -8.55667,-8.46876 -14.57422,-8.46876 h -9.11914 -9.11914 c -0.63845,0 -1.2146,-0.32309 -1.55859,-0.92382 -0.34398,-0.60072 -0.34398,-1.33679 0,-1.9375 0.34399,-0.60074 0.92014,-0.92383 1.55859,-0.92383 h 35.36328 v -15 z m 147.0293,-13.3125 v 65.38086 h 15 v -65.38086 z m -81.52344,13.07812 c -9.32716,0 -17.97513,4.99285 -22.63867,13.07032 -4.66358,8.07755 -4.66358,18.06307 0,26.14062 4.66354,8.07748 13.31151,13.07031 22.63867,13.07031 h 17.52344 v -15 h -17.52344 c -3.99213,0 -7.65231,-2.11293 -9.64844,-5.57031 -1.99606,-3.45728 -1.99606,-7.68334 0,-11.14062 1.99612,-3.45738 5.65631,-5.57032 9.64844,-5.57032 h 17.52344 v -15 z m 45.32422,0 c -9.32712,0 -17.97512,4.9928 -22.63867,13.07032 -4.66357,8.07751 -4.66357,18.0631 0,26.14062 4.66355,8.07751 13.31155,13.07031 22.63867,13.07031 h 9.05664 v -15 h -9.05664 c -3.99218,0 -7.65235,-2.11298 -9.64844,-5.57031 -1.99609,-3.45732 -1.99609,-7.6833 0,-11.14062 1.99609,-3.45733 5.65626,-5.57032 9.64844,-5.57032 h 14.83399 v 37.30274 h 15 v -52.30274 z m -249.8281175,0 v 64.0918 H 23.071442 v -49.0918 h 14.833985 c 3.992175,0 7.652348,2.11299 9.648437,5.57032 1.996087,3.45732 1.996087,7.6833 0,11.14062 -1.996088,3.45733 -5.656262,5.57031 -9.648437,5.57031 h -9.056641 v 15 h 9.056641 c 9.327114,0 17.975115,-4.99279 22.638671,-13.07031 4.663558,-8.07752 4.663558,-18.06311 0,-26.14062 -4.663557,-8.07752 -13.311557,-13.07032 -22.638671,-13.07032 z m 87.2871105,0 c -9.32712,0 -17.975116,4.9928 -22.638673,13.07032 -4.663558,8.07751 -4.663558,18.0631 0,26.14062 4.663556,8.07752 13.311553,13.07031 22.638673,13.07031 h 9.056637 v -15 h -9.056637 c -3.99218,0 -7.65235,-2.11298 -9.64844,-5.57031 -1.99609,-3.45732 -1.99609,-7.6833 0,-11.14062 1.99609,-3.45733 5.65626,-5.57032 9.64844,-5.57032 h 14.833977 v 37.30274 h 15 v -52.30274 z"
       inkscape:connector-curvature="0" />
    <g
       id="g4216"
       style="fill:#b92c00;fill-opacity:1;stroke:#000000;stroke-width:0.29104167;stroke-linejoin:round;stroke-miterlimit:4;stroke-dasharray:none"
       transform="translate(-84.19786,-600.64331)">
      <path
         inkscape:connector-curvature="0"
         id="path2388"
         d="m 409.4056,541.31941 -5.81774,5.97844 c -0.44558,2.70206 -0.52678,5.6001 -0.24079,8.61808 l 5.82546,-5.9862 c -0.28599,-3.01372 -0.21034,-5.91133 0.23307,-8.61032 z"
         style="opacity:1;fill:#b92c00;fill-opacity:1;stroke:#000000;stroke-width:0.29104167;stroke-linejoin:round;stroke-miterlimit:4;stroke-dasharray:none" />
      <path
         inkscape:connector-curvature="0"
         id="path2771"
         d="m 381.22798,541.35403 -5.82962,5.98981 v 8.58863 l 5.82962,-5.98879 z"
         style="opacity:1;fill:#b92c00;fill-opacity:1;stroke:#000000;stroke-width:0.29104167;stroke-linejoin:round;stroke-miterlimit:4;stroke-dasharray:none" />
      <path
         transform="scale(0.26458333)"
         id="path4145"
         d="m 1360.1113,2046.0938 -22.0332,22.6308 v 32.4492 l 22.0332,-22.6426 z"
         style="opacity:1;fill:#b92c00;fill-opacity:1;stroke:#000000;stroke-width:1.10000001;stroke-linejoin:round;stroke-miterlimit:4;stroke-dasharray:none"
         inkscape:connector-curvature="0" />
      <path
         inkscape:connector-curvature="0"
         id="path3795"
         d="m 320.35988,541.22019 -5.89835,6.06113 c -0.94803,2.79574 -1.41198,5.71377 -1.38648,8.63151 l 5.83272,-5.98981 c -0.0257,-2.94654 0.48498,-5.88196 1.45211,-8.70283 z"
         style="opacity:1;fill:#b92c00;fill-opacity:1;stroke:#000000;stroke-width:0.29104167;stroke-linejoin:round;stroke-miterlimit:4;stroke-dasharray:none" />
      <path
         inkscape:connector-curvature="0"
         id="path3826"
         d="m 275.03293,541.22846 -5.89422,6.05647 c -0.61258,1.80932 -1.03553,3.66711 -1.24127,5.54644 0.30252,0.71165 0.53085,1.44505 0.73174,2.18332 l 4.95422,-5.09116 c -0.0257,-2.94368 0.48429,-5.87667 1.44953,-8.69507 z"
         style="opacity:1;fill:#b92c00;fill-opacity:1;stroke:#000000;stroke-width:0.29104167;stroke-linejoin:round;stroke-miterlimit:4;stroke-dasharray:none" />
      <path
         inkscape:connector-curvature="0"
         id="path3894"
         d="m 132.17705,541.16696 -5.83014,5.99085 c 0.98226,0.82388 1.84284,1.80776 2.50631,2.95693 1.0392,1.79994 1.52472,3.80828 1.48156,5.80791 l 5.83013,-5.99137 c 0.0427,-1.99945 -0.44252,-4.00722 -1.48156,-5.80688 -0.66353,-1.14927 -1.52393,-2.13352 -2.5063,-2.95744 z"
         style="opacity:1;fill:#b92c00;fill-opacity:1;stroke:#000000;stroke-width:0.29104167;stroke-linejoin:round;stroke-miterlimit:4;stroke-dasharray:none" />
      <path
         inkscape:connector-curvature="0"
         id="path3857"
         d="m 197.3219,538.55524 -5.83065,5.98929 h 0.001 v 11.38845 l 5.82962,-5.98826 z"
         style="opacity:1;fill:#b92c00;fill-opacity:1;stroke:#000000;stroke-width:0.29104167;stroke-linejoin:round;stroke-miterlimit:4;stroke-dasharray:none" />
      <path
         inkscape:connector-curvature="0"
         id="path3885"
         d="m 157.80959,541.24809 -5.89008,6.05286 c -0.29083,0.86019 -0.55297,1.72755 -0.75189,2.6076 v 5.1e-4 c -0.0152,1.86675 -0.22863,3.73198 -0.64234,5.56245 -0.001,0.13806 0.0227,0.27536 0.0238,0.41341 l 5.8167,-5.97689 c -0.0238,-2.93168 0.48484,-5.85245 1.44383,-8.65994 z"
         style="opacity:1;fill:#b92c00;fill-opacity:1;stroke:#000000;stroke-width:0.29104167;stroke-linejoin:round;stroke-miterlimit:4;stroke-dasharray:none" />
      <path
         inkscape:connector-curvature="0"
         id="path4029"
         d="m 217.42456,541.30649 -5.10253,5.2436 v 5.16145 c 0.3623,1.16496 0.85105,2.29955 1.47071,3.3817 0.16712,0.29186 0.37198,0.55315 0.555,0.83251 l 5.82859,-5.9893 c -0.18302,-0.27941 -0.38683,-0.54165 -0.55397,-0.83354 -1.38469,-2.41818 -2.09819,-5.09855 -2.1978,-7.79642 z"
         style="opacity:1;fill:#b92c00;fill-opacity:1;stroke:#000000;stroke-width:0.29104167;stroke-linejoin:round;stroke-miterlimit:4;stroke-dasharray:none" />
      <path
         inkscape:connector-curvature="0"
         id="path3915"
         d="m 95.200491,541.40054 -5.829618,5.99085 v 8.53436 l 5.829618,-5.99033 z"
         style="opacity:1;fill:#b92c00;fill-opacity:1;stroke:#000000;stroke-width:0.29104167;stroke-linejoin:round;stroke-miterlimit:4;stroke-dasharray:none" />
    </g>
    <g
       id="g4050"
       style="fill:#b60300;fill-opacity:1;stroke:#000000;stroke-width:0.29104167;stroke-linejoin:round;stroke-miterlimit:4;stroke-dasharray:none"
       transform="translate(1.2177,-13.26832)">
      <path
         transform="scale(0.26458333)"
         id="path4023"
         d="m 509.33203,-141.5 -22.0293,22.63672 c 5.59037,8.53315 12.98383,15.58772 21.64649,20.527342 h 122.3125 c 2.41308,10e-7 4.5905,-1.213867 5.89062,-3.484372 1.30012,-2.27052 1.30009,-5.05964 0,-7.33008 -1.30012,-2.27051 -3.47754,-3.48438 -5.89062,-3.48438 h -34.46484 -34.4668 c -21.46958,0 -41.34011,-11.0671 -52.99805,-28.86523 z"
         style="opacity:1;fill:#b60300;fill-opacity:1;stroke:#000000;stroke-width:1.10000001;stroke-linejoin:round;stroke-miterlimit:4;stroke-dasharray:none"
         inkscape:connector-curvature="0" />
      <path
         id="path2390"
         d="m 323.75697,-37.445259 -5.82547,5.986198 c 0.27483,2.900405 0.88945,5.900194 1.85415,8.936405 l 5.82652,-5.987232 c -0.96461,-3.035271 -1.58003,-6.035726 -1.8552,-8.935371 z"
         style="opacity:1;fill:#b60300;fill-opacity:1;stroke:#000000;stroke-width:0.29104167;stroke-linejoin:round;stroke-miterlimit:4;stroke-dasharray:none"
         inkscape:connector-curvature="0" />
      <path
         id="path2773"
         d="m 295.81242,-37.431307 -5.82962,5.988782 v 8.937439 l 5.82962,-5.988782 z"
         style="opacity:1;fill:#b60300;fill-opacity:1;stroke:#000000;stroke-width:0.29104167;stroke-linejoin:round;stroke-miterlimit:4;stroke-dasharray:none"
         inkscape:connector-curvature="0" />
      <path
         id="path3154"
         d="m 274.44731,-37.430273 -5.82961,5.990849 v 4.899959 h 0.0522 v 3.966683 l 5.77741,-5.937106 z"
         style="opacity:1;fill:#b60300;fill-opacity:1;stroke:#000000;stroke-width:0.29104167;stroke-linejoin:round;stroke-miterlimit:4;stroke-dasharray:none"
         inkscape:connector-curvature="0" />
      <path
         id="path3797"
         d="m 233.4922,-37.451977 -5.83271,5.989815 c 0.0144,1.649746 0.17416,3.298343 0.49971,4.922697 h 3.65352 v 1.447457 l 3.35638,-3.447334 c -1.07329,-2.874965 -1.6505,-5.886942 -1.6769,-8.912635 z"
         style="opacity:1;fill:#b60300;fill-opacity:1;stroke:#000000;stroke-width:0.29104167;stroke-linejoin:round;stroke-miterlimit:4;stroke-dasharray:none"
         inkscape:connector-curvature="0" />
      <path
         id="path3828"
         d="m 188.16784,-37.451461 -4.95422,5.091163 c 0.72708,2.671889 0.81191,5.477171 0.20671,8.172627 0.16749,0.560097 0.39521,1.104396 0.60099,1.65468 l 5.8291,-5.989298 c -1.07745,-2.880006 -1.65612,-5.897568 -1.68258,-8.929172 z"
         style="opacity:1;fill:#b60300;fill-opacity:1;stroke:#000000;stroke-width:0.29104167;stroke-linejoin:round;stroke-miterlimit:4;stroke-dasharray:none"
         inkscape:connector-curvature="0" />
      <path
         id="path3897"
         d="m 50.749355,-37.443709 -5.830133,5.991366 c -0.02911,1.348877 -0.29211,2.69372 -0.813387,3.968234 2.132687,-0.937086 3.953518,-2.532476 5.161957,-4.62556 0.957056,-1.657659 1.44226,-3.492338 1.481563,-5.33404 z"
         style="opacity:1;fill:#b60300;fill-opacity:1;stroke:#000000;stroke-width:0.29104167;stroke-linejoin:round;stroke-miterlimit:4;stroke-dasharray:none"
         inkscape:connector-curvature="0" />
      <path
         id="path3875"
         d="m 111.90634,-37.430273 -5.82961,5.988264 v 4.902544 h 0.0522 v 3.959965 l 5.77742,-5.935037 z"
         style="opacity:1;fill:#b60300;fill-opacity:1;stroke:#000000;stroke-width:0.29104167;stroke-linejoin:round;stroke-miterlimit:4;stroke-dasharray:none"
         inkscape:connector-curvature="0" />
      <path
         id="path3887"
         d="m 70.95019,-37.466963 -5.816698,5.976895 c 0.02312,3.041502 0.59032,6.069859 1.670698,8.959144 l 5.829617,-5.990333 c -1.079516,-2.8852 -1.658911,-5.908583 -1.683617,-8.945706 z"
         style="opacity:1;fill:#b60300;fill-opacity:1;stroke:#000000;stroke-width:0.29104167;stroke-linejoin:round;stroke-miterlimit:4;stroke-dasharray:none"
         inkscape:connector-curvature="0" />
      <path
         id="path3903"
         d="m 9.7849324,-37.439576 -5.8296183,5.990334 v 8.969477 l 5.8296183,-5.990333 z"
         style="opacity:1;fill:#b60300;fill-opacity:1;stroke:#000000;stroke-width:0.29104167;stroke-linejoin:round;stroke-miterlimit:4;stroke-dasharray:none"
         inkscape:connector-curvature="0" />
    </g>
    <g
       id="g4191"
       style="fill:#ca790e;fill-opacity:1;stroke:#000000;stroke-width:0.29104167;stroke-linejoin:round;stroke-miterlimit:4;stroke-dasharray:none"
       transform="translate(-84.19786,-600.64331)">
      <path
         transform="scale(0.26458333)"
         id="path2235"
         d="m 1559.4219,2012.7832 -21.7617,22.3477 c -6.0641,9.6332 -10.2305,20.9133 -12.2891,33.3964 l 21.9883,-22.5957 c 2.0308,-12.3615 6.096,-23.5772 12.0625,-33.1484 z"
         style="opacity:1;fill:#ca790e;fill-opacity:1;stroke:#000000;stroke-width:1.10000001;stroke-linejoin:round;stroke-miterlimit:4;stroke-dasharray:none"
         inkscape:connector-curvature="0" />
      <path
         inkscape:connector-curvature="0"
         id="path2769"
         d="m 381.22798,532.53234 -5.82962,5.99034 v 8.82116 l 5.82962,-5.98981 z"
         style="opacity:1;fill:#ca790e;fill-opacity:1;stroke:#000000;stroke-width:0.29104167;stroke-linejoin:round;stroke-miterlimit:4;stroke-dasharray:none" />
      <path
         inkscape:connector-curvature="0"
         id="path3152"
         d="m 359.86288,538.55575 v -0.002 h -14.83423 c -3.99218,0 -7.65241,2.11287 -9.6485,5.5702 -0.25589,0.44321 -0.47738,0.89955 -0.66766,1.36478 1.39001,-0.61073 2.91132,-0.94465 4.48654,-0.94465 h 14.8332 z"
         style="opacity:1;fill:#ca790e;fill-opacity:1;stroke:#000000;stroke-width:0.29104167;stroke-linejoin:round;stroke-miterlimit:4;stroke-dasharray:none" />
      <path
         id="path2990"
         d="m 359.86278,538.55574 -5.83065,5.98879 v 0 2.80551 l 5.82962,-5.98773 z"
         style="opacity:1;fill:#ca790e;fill-opacity:1;stroke:#000000;stroke-width:0.29104167;stroke-linejoin:round;stroke-miterlimit:4;stroke-dasharray:none"
         inkscape:connector-curvature="0" />
      <path
         inkscape:connector-curvature="0"
         id="path3712"
         d="m 325.97193,531.80422 -5.66063,5.81464 c -1.42959,1.49158 -2.69298,3.16409 -3.75068,4.99607 -0.86428,1.49699 -1.55527,3.06263 -2.09909,4.66639 l 5.89835,-6.06113 c 0.54005,-1.57521 1.18072,-3.12396 2.03036,-4.59559 1.0161,-1.75994 2.22148,-3.37305 3.58169,-4.82038 z"
         style="opacity:1;fill:#ca790e;fill-opacity:1;stroke:#000000;stroke-width:0.29104167;stroke-linejoin:round;stroke-miterlimit:4;stroke-dasharray:none" />
      <path
         inkscape:connector-curvature="0"
         id="path3810"
         d="m 280.65429,531.79699 -5.43688,5.58467 c -1.52457,1.55088 -2.86694,3.30342 -3.98115,5.23327 -0.86477,1.49782 -1.55423,3.06526 -2.09755,4.67 l 5.89422,-6.05647 c 0.54045,-1.57809 1.18182,-3.12967 2.03295,-4.60386 1.01778,-1.76284 2.22543,-3.37844 3.58841,-4.82761 z"
         style="opacity:1;fill:#ca790e;fill-opacity:1;stroke:#000000;stroke-width:0.29104167;stroke-linejoin:round;stroke-miterlimit:4;stroke-dasharray:none" />
      <path
         inkscape:connector-curvature="0"
         id="path3838"
         d="m 299.70481,538.55419 c -3.99214,0 -7.65239,2.11282 -9.64851,5.5702 -0.25588,0.4432 -0.4779,0.89955 -0.66818,1.36478 1.39004,-0.61076 2.9113,-0.94465 4.48655,-0.94465 h 17.52348 l 5.83013,-5.99033 z"
         style="opacity:1;fill:#ca790e;fill-opacity:1;stroke:#000000;stroke-width:0.29104167;stroke-linejoin:round;stroke-miterlimit:4;stroke-dasharray:none" />
      <path
         inkscape:connector-curvature="0"
         id="path3861"
         d="m 234.19873,538.7888 c -0.63845,0 -1.21457,0.32272 -1.55856,0.92346 -0.34398,0.60071 -0.34398,1.33715 0,1.93787 0.34399,0.60073 0.92011,0.92345 1.55856,0.92346 h 9.11934 9.11882 c 2.95597,0 5.80381,0.788 8.29097,2.20554 h 3.00446 l 5.82962,-5.99033 z"
         style="opacity:1;fill:#ca790e;fill-opacity:1;stroke:#000000;stroke-width:0.29104167;stroke-linejoin:round;stroke-miterlimit:4;stroke-dasharray:none" />
      <path
         inkscape:connector-curvature="0"
         id="path3859"
         d="m 110.20061,538.5542 v 5.99033 h 9.0041 c 2.66524,0 5.16928,0.95848 7.1422,2.61328 l 5.83014,-5.99085 c -1.97289,-1.65467 -4.47709,-2.61276 -7.1422,-2.61276 z"
         style="opacity:1;fill:#ca790e;fill-opacity:1;stroke:#000000;stroke-width:0.29104167;stroke-linejoin:round;stroke-miterlimit:4;stroke-dasharray:none" />
      <path
         inkscape:connector-curvature="0"
         id="path3873"
         d="m 197.3219,538.55524 v -10e-4 h -14.83423 c -3.99218,0 -7.65242,2.11287 -9.64851,5.5702 -0.25588,0.44321 -0.47738,0.89955 -0.66766,1.36478 1.39001,-0.61073 2.91133,-0.94465 4.48655,-0.94465 h 14.8332 z"
         style="opacity:1;fill:#ca790e;fill-opacity:1;stroke:#000000;stroke-width:0.29104167;stroke-linejoin:round;stroke-miterlimit:4;stroke-dasharray:none" />
      <path
         inkscape:connector-curvature="0"
         id="path3855"
         d="m 163.42372,531.81198 -5.53352,5.68234 c -1.47901,1.52284 -2.78332,3.23747 -3.87056,5.12061 -0.86749,1.50253 -1.55575,3.07589 -2.10013,4.68602 l 5.89008,-6.05286 c 0.5414,-1.58497 1.18502,-3.14319 2.03967,-4.62349 1.01429,-1.75681 2.21721,-3.36728 3.57446,-4.81262 z"
         style="opacity:1;fill:#ca790e;fill-opacity:1;stroke:#000000;stroke-width:0.29104167;stroke-linejoin:round;stroke-miterlimit:4;stroke-dasharray:none" />
      <path
         id="path4129"
         d="m 219.51011,532.49049 -5.72161,5.76606 c -0.61733,1.07953 -1.10522,2.21105 -1.46658,3.37291 v 4.92064 l 5.10253,-5.24362 c -0.11194,-3.03178 0.57619,-6.08052 2.08566,-8.81599 z"
         style="opacity:1;fill:#ca790e;fill-opacity:1;stroke:#000000;stroke-width:0.29104167;stroke-linejoin:round;stroke-miterlimit:4;stroke-dasharray:none"
         inkscape:connector-curvature="0" />
      <path
         inkscape:connector-curvature="0"
         id="path3918"
         d="m 95.200491,532.55147 -5.829618,5.99033 v 8.84959 l 5.829618,-5.99085 z"
         style="opacity:1;fill:#ca790e;fill-opacity:1;stroke:#000000;stroke-width:0.29104167;stroke-linejoin:round;stroke-miterlimit:4;stroke-dasharray:none" />
    </g>
    <g
       id="g4204"
       style="fill:#1a5719;fill-opacity:1;stroke:#000000;stroke-width:0.29104167;stroke-linejoin:round;stroke-miterlimit:4;stroke-dasharray:none"
       transform="translate(-84.19786,-600.64331)">
      <path
         transform="scale(0.26458333)"
         id="path4164"
         d="m 1559.4219,2012.7832 c 2.2527,-3.6138 4.7229,-7.0367 7.5351,-10.1348 l -20.7558,21.2735 c -3.235,3.3709 -6.0079,7.1848 -8.541,11.209 z"
         style="opacity:1;fill:#1a5719;fill-opacity:1;stroke:#000000;stroke-width:1.10000001;stroke-linejoin:round;stroke-miterlimit:4;stroke-dasharray:none"
         inkscape:connector-curvature="0" />
      <path
         id="path3853"
         d="m 222.17145,528.88192 c -0.0197,0.0204 -0.0408,0.0391 -0.0605,0.0594 l -5.7919,5.95262 c -0.96833,0.9969 -1.82016,2.12035 -2.52646,3.35381 -0.002,0.003 -0.003,0.006 -0.004,0.009 l 5.72161,-5.76606 c 0.042,-0.0761 0.0689,-0.15748 0.11214,-0.23308 0.71158,-1.24266 1.57211,-2.37267 2.5492,-3.3755 z"
         style="opacity:1;fill:#1a5719;fill-opacity:1;stroke:#000000;stroke-width:0.29104167;stroke-linejoin:round;stroke-miterlimit:4;stroke-dasharray:none"
         inkscape:connector-curvature="0" />
      <path
         inkscape:connector-curvature="0"
         id="path2411"
         d="m 381.22798,510.47633 -5.82962,5.99033 v 22.05602 l 5.82962,-5.99034 z"
         style="opacity:1;fill:#1a5719;fill-opacity:1;stroke:#000000;stroke-width:0.29104167;stroke-linejoin:round;stroke-miterlimit:4;stroke-dasharray:none" />
      <path
         inkscape:connector-curvature="0"
         id="path3530"
         d="m 438.94281,526.44125 -1.05627,1.07745 c 0.68234,0.16793 1.38928,0.27744 2.16937,0.22221 0.45363,-0.0321 0.89215,-0.0999 1.31983,-0.19431 l 4.35115,-4.42298 c -2.13691,1.99585 -4.56973,3.21156 -6.78408,3.31763 z"
         style="opacity:1;fill:#1a5719;fill-opacity:1;stroke:#000000;stroke-width:0.29104167;stroke-linejoin:round;stroke-miterlimit:4;stroke-dasharray:none" />
      <path
         inkscape:connector-curvature="0"
         id="path3186"
         d="m 443.65777,513.00176 -5.84047,6.00325 c -1.7604,1.87931 -3.16505,4.14802 -3.99148,6.70605 1.32707,0.72818 2.61652,1.4522 4.06072,1.80764 l 1.05627,-1.07745 c -0.0128,6.1e-4 -0.0265,0.006 -0.0393,0.006 -0.47043,-5.36417 1.56038,-10.04399 4.75422,-13.44569 z"
         style="opacity:1;fill:#1a5719;fill-opacity:1;stroke:#000000;stroke-width:0.29104167;stroke-linejoin:round;stroke-miterlimit:4;stroke-dasharray:none" />
      <path
         inkscape:connector-curvature="0"
         id="path1983"
         d="m 95.200491,523.55408 -5.829618,5.99033 v 8.99739 l 5.829618,-5.99033 z"
         style="opacity:1;fill:#1a5719;fill-opacity:1;stroke:#000000;stroke-width:0.29104167;stroke-linejoin:round;stroke-miterlimit:4;stroke-dasharray:none" />
    </g>
    <path
       style="fill:none;fill-rule:evenodd;stroke:#000000;stroke-width:0.29104167;stroke-linecap:butt;stroke-linejoin:round;stroke-miterlimit:4;stroke-dasharray:none;stroke-opacity:1"
       d="m 380.1699,-70.94188 -5.22645,5.31849"
       id="path1043"
       inkscape:connector-curvature="0"
       sodipodi:nodetypes="cc" />
    <path
       id="path1183"
       style="opacity:1;fill:#027dbd;fill-opacity:1;stroke:#000000;stroke-width:0.29104167;stroke-linejoin:round;stroke-miterlimit:4;stroke-dasharray:none"
       d="m 312.03025,-32.75447 h -15.00013 v 7.96799 h 15.00013 z m -21.3651,0 h -15.00013 v 7.96799 h 15.00013 z m -20.77755,0 h -27.78951 c 4.86183,4.99991 11.58938,7.94681 18.7327,7.94681 h 9.05681 z m -36.85718,0 h -36.2567 c 4.86182,4.9999 11.58987,7.94681 18.73323,7.94681 h 17.52347 z m -50.2176,0 h -49.58354 v 8.46822 h 35.00975 c 6.01731,0 11.58967,-3.25735 14.57379,-8.46822 z m -54.68865,0 h -15.00013 v 7.96799 h 15.00013 z m -20.77755,0 H 79.5571 c 4.86183,4.99991 11.58939,7.94681 18.73271,7.94681 h 9.05681 z m -47.77693,0 H 31.78017 v 7.94681 h 9.05682 c 7.14331,0 13.87087,-2.9469 18.7327,-7.94681 z m -33.56694,0 H 11.00263 v 19.75745 h 15.00012 z m 304.75246,0 c 1.00994,1.83548 2.10161,3.65987 3.3755,5.44412 2.62755,3.68017 6.97767,4.45647 12.51241,2.06757 3.81984,-2.0763 7.37304,-2.0296 12.32329,0.0884 4.35266,1.8623 9.96656,1.46776 13.86633,-2.68821 1.43404,-1.52827 2.67012,-3.17945 3.82715,-4.91185 z"
       inkscape:connector-curvature="0" />
    <path
       id="path1181"
       style="opacity:1;fill:#880d52;fill-opacity:1;stroke:#000000;stroke-width:0.29104167;stroke-linejoin:round;stroke-miterlimit:4;stroke-dasharray:none"
       d="m 330.75521,-32.75447 h 45.90468 c 1.77252,-2.65394 3.27892,-5.62098 4.60025,-9.03924 h -54.40238 c 0.9561,3.01226 2.24888,6.04308 3.89745,9.03924 z m -304.75246,0 v -9.03924 H 11.00263 v 9.03924 z m 33.56694,0 c 1.48632,-1.52853 2.81381,-3.23249 3.90571,-5.12371 0.72748,-1.26005 1.30092,-2.57711 1.80144,-3.91553 H 47.15443 c -1.82785,1.26217 -4.01117,1.98593 -6.31744,1.98593 h -9.05682 v 7.05331 z m 47.77693,0 v -7.05331 h -9.05681 c -2.30628,0 -4.4896,-0.72376 -6.31744,-1.98593 H 73.84996 c 0.50052,1.33842 1.07395,2.65548 1.80144,3.91553 1.0919,1.89122 2.41938,3.59518 3.9057,5.12371 z m 20.77755,0 v -9.03924 h -15.00013 v 9.03924 z m 54.68865,0 c 1.2e-4,-2.1e-4 2.6e-4,-3.1e-4 5.3e-4,-5.3e-4 1.59755,-2.78992 2.31131,-5.92599 2.19831,-9.03872 h -15.06885 c 0.17466,0.52205 0.13428,1.09735 -0.14521,1.58543 -0.34399,0.60074 -0.9201,0.92191 -1.55856,0.92191 h -35.00976 v 6.5319 z m 50.2176,0 v -7.05331 h -17.52347 c -2.30616,0 -4.48964,-0.72386 -6.31745,-1.98593 h -18.12241 c 0.50052,1.33838 1.07346,2.65552 1.80093,3.91553 1.09189,1.89121 2.41939,3.59518 3.9057,5.12371 z m 36.85718,0 v -7.05331 h -9.05681 c -2.30628,0 -4.48959,-0.72376 -6.31744,-1.98593 h -18.12189 c 0.50051,1.33838 1.07346,2.65552 1.80092,3.91553 1.0919,1.89122 2.41939,3.59518 3.90571,5.12371 z m 42.14265,-9.03924 h -15.00013 v 9.03924 h 15.00013 z m -21.3651,9.03924 v -9.03924 h -15.00013 v 9.03924 z"
       inkscape:connector-curvature="0" />
    <path
       id="path1282"
       style="opacity:1;fill:#d10d00;fill-opacity:1;stroke:#000000;stroke-width:0.29104167;stroke-linejoin:round;stroke-miterlimit:4;stroke-dasharray:none"
       d="m 128.12417,-50.72443 h -15.00013 v 8.93072 h 15.00013 z m -40.96546,0 H 72.20406 c 0.0344,3.02783 0.56946,6.05227 1.6459,8.93072 h 18.12241 c -1.33617,-0.92265 -2.48812,-2.12424 -3.33107,-3.58428 -0.95921,-1.66139 -1.44527,-3.50056 -1.48259,-5.34644 z m 48.80787,0 c 3.08283,4.71955 8.34665,7.65483 14.03429,7.65483 h 9.11934 9.11882 c 0.63846,0 1.21457,0.32117 1.55856,0.92191 0.0645,0.11265 0.1049,0.23348 0.14521,0.35398 h 15.06885 c -0.0981,-2.70147 -0.81183,-5.38596 -2.19832,-7.80727 -0.22532,-0.3935 -0.4928,-0.7528 -0.74672,-1.12345 z m 53.4541,0 c 0.0345,3.02783 0.56995,6.05225 1.64641,8.93072 h 18.12241 c -1.33626,-0.92266 -2.48805,-2.12414 -3.33106,-3.58428 -0.9592,-1.66137 -1.44528,-3.50055 -1.4826,-5.34644 z m 45.32437,0 c 0.0345,3.02783 0.56995,6.05225 1.64641,8.93072 h 18.12189 c -1.33617,-0.92265 -2.48811,-2.12424 -3.33106,-3.58428 -0.95921,-1.66139 -1.44528,-3.50056 -1.4826,-5.34644 z m 40.91997,0 v 8.93072 h 15.00013 v -8.93072 z m 21.3651,0 v 8.93072 h 15.00013 v -8.93072 z m 28.01639,0 c 0.27421,2.89988 0.84703,5.89289 1.81125,8.93072 h 54.40238 c 0.19677,-0.50907 0.4132,-0.96664 0.60307,-1.49706 -3.61797,-1.65499 -6.39077,-4.30138 -8.00055,-7.43366 z m -258.12378,0 H 51.96809 c -0.0373,1.84588 -0.52339,3.68505 -1.4826,5.34644 -0.84295,1.46004 -1.99489,2.66163 -3.33106,3.58428 h 18.12241 c 1.07643,-2.87845 1.61151,-5.90289 1.64589,-8.93072 z m -40.91998,0 H 11.00263 v 8.93072 h 15.00012 z"
       inkscape:connector-curvature="0" />
    <path
       id="path1280"
       style="opacity:1;fill:#e44400;fill-opacity:1;stroke:#000000;stroke-width:0.29104167;stroke-linejoin:round;stroke-miterlimit:4;stroke-dasharray:none"
       d="m 128.12417,-59.32804 h -15.00013 v 8.60361 h 15.00013 z m -40.96546,8.60361 c -0.0404,-1.99534 0.44572,-3.99856 1.48259,-5.79448 0.62469,-1.082 1.42697,-2.01404 2.33681,-2.80913 H 73.56522 c -0.9384,2.78899 -1.3942,5.69407 -1.36116,8.60361 z m 48.80787,0 h 46.10003 c -3.10882,-4.5381 -8.26441,-7.34529 -13.82758,-7.34529 h -9.11882 -9.11934 c -0.63845,0 -1.21457,-0.32272 -1.55856,-0.92345 -0.061,-0.10657 -0.0976,-0.22128 -0.13695,-0.33487 h -15.07608 c 0.0971,2.69455 0.81158,5.37129 2.19522,7.78764 0.16359,0.2857 0.36327,0.54222 0.54208,0.81597 z m 53.4541,0 h 14.95516 c -0.0403,-1.99535 0.44574,-3.99858 1.4826,-5.79448 0.6247,-1.08201 1.42696,-2.01404 2.33681,-2.80913 h -17.41341 c -0.93835,2.78899 -1.39429,5.69409 -1.36116,8.60361 z m 45.32437,0 h 14.95464 c -0.0403,-1.99534 0.44572,-3.99856 1.4826,-5.79448 0.62469,-1.082 1.42697,-2.01404 2.33681,-2.80913 h -17.4129 c -0.93834,2.78899 -1.39429,5.69408 -1.36115,8.60361 z m 40.91997,0 h 15.00013 v -8.60361 h -15.00013 z m 21.3651,0 h 15.00013 v -8.60361 h -15.00013 z m 28.01639,0 h 48.81615 c -1.34938,-2.62559 -1.88106,-5.59236 -1.40613,-8.60361 h -47.20177 c -0.44201,2.69384 -0.49273,5.59518 -0.20825,8.60361 z M 65.56157,-59.32804 H 48.14868 c 0.90984,0.79509 1.71212,1.72713 2.33681,2.80913 1.03688,1.79592 1.52294,3.79914 1.4826,5.79448 h 14.95464 c 0.033,-2.90954 -0.42275,-5.81462 -1.36116,-8.60361 z m -39.55882,8.60361 v -8.60361 H 11.00263 v 8.60361 z"
       inkscape:connector-curvature="0" />
    <path
       id="path1249"
       style="opacity:1;fill:#e78e14;fill-opacity:1;stroke:#000000;stroke-width:0.29104167;stroke-linejoin:round;stroke-miterlimit:4;stroke-dasharray:none"
       d="m 11.00263,-68.14972 v 8.82168 h 15.00012 v -2.76107 h 14.83424 c 2.74279,0 5.31431,1.01561 7.31169,2.76107 h 17.41289 c -0.54183,-1.61036 -1.21809,-3.18711 -2.08617,-4.69067 -0.86663,-1.50104 -1.91024,-2.85525 -3.03083,-4.13101 z m 67.67959,0 c -1.12058,1.27576 -2.1642,2.62997 -3.03082,4.13101 -0.86808,1.50356 -1.54435,3.08031 -2.08618,4.69067 h 17.41289 c 1.99739,-1.74546 4.5689,-2.76107 7.3117,-2.76107 h 14.83423 v 2.76107 h 15.00013 v -8.82168 z m 293.77431,8.82168 c 0.47228,-2.99441 1.93889,-6.03258 4.58682,-8.82168 h -48.59187 c -1.59388,2.53901 -2.65737,5.53466 -3.19672,8.82168 z m -60.42628,0 v -8.82168 h -15.00013 v 8.82168 z m -21.3651,0 v -8.82168 H 241.2232 c -1.12058,1.27576 -2.16419,2.62997 -3.03082,4.13101 -0.86809,1.50357 -1.54437,3.08031 -2.08618,4.69067 h 17.4129 c 1.99738,-1.74546 4.5689,-2.76107 7.31169,-2.76107 h 14.83423 v 2.76107 z m -82.4699,0 c 1.9974,-1.74547 4.56893,-2.76107 7.3117,-2.76107 h 17.52347 v -6.06061 h -37.13158 c -1.12061,1.27575 -2.1642,2.62998 -3.03082,4.13101 -0.86809,1.50358 -1.54438,3.08031 -2.08618,4.69067 z m -59.88989,0 c -0.18257,-0.52674 -0.14601,-1.10885 0.13695,-1.603 0.34399,-0.60074 0.92011,-0.92346 1.55856,-0.92346 h 35.36321 v -6.29522 h -50.05482 c -1.51069,2.73654 -2.18921,5.79051 -2.07998,8.82168 z"
       inkscape:connector-curvature="0" />
    <path
       id="path1135"
       style="opacity:1;fill:#2b7325;fill-opacity:1;stroke:#000000;stroke-width:0.29104167;stroke-linejoin:round;stroke-miterlimit:4;stroke-dasharray:none"
       d="m 367.32454,-92.67122 c -7.04974,2.2758 -13.41501,9.39688 -12.61885,18.47536 5.96381,-0.25112 13.54635,-8.6108 12.61885,-18.47536 z m -356.32191,24.5215 h 49.44194 c -4.9096,-5.58947 -12.01372,-8.93951 -19.60758,-8.93951 H 11.00263 Z m 67.67959,0 h 49.44195 v -8.93951 H 98.28981 c -7.59387,0 -14.69799,3.35004 -19.60759,8.93951 z m 56.62704,0 h 50.05482 v -8.7049 h -35.36321 c -6.01754,0 -11.59235,3.25751 -14.57637,8.46874 -0.0439,0.0767 -0.0726,0.15896 -0.11524,0.23616 z m 60.58958,0 h 37.13158 v -8.93951 h -17.52347 c -7.59391,0 -14.69839,3.35005 -19.60811,8.93951 z m 45.32436,0 h 49.44195 v -8.93951 h -29.83436 c -7.59386,0 -14.69799,3.35004 -19.60759,8.93951 z m 55.80692,0 h 15.00013 v -22.01726 h -15.00013 z m 31.42136,0 h 48.59187 c 0.89127,-0.9388 1.87322,-1.85854 3.04011,-2.72955 -2.91666,-4.14585 -5.78329,-5.47987 -11.62357,-5.95209 -4.86116,-0.34723 -7.97874,3.60166 -12.60184,3.92896 -4.62975,0.32778 -7.12906,-4.06819 -12.31654,-3.78995 -6.94435,0.37246 -11.9939,3.61047 -15.09003,8.54263 z"
       inkscape:connector-curvature="0" />
    <path
       style="opacity:1;fill:#0166a4;fill-opacity:1;stroke:#000000;stroke-width:0.29104167;stroke-linejoin:round;stroke-miterlimit:4;stroke-dasharray:none"
       d="m 133.22918,-32.75396 -5.10512,5.1449 v 2.82258 h -14.99908 l -5.83065,5.98929 v 0.001 h 14.9996 l 5.85649,-5.99033 -0.75086,0.78806 v 5.70198 l 5.83013,-5.98982 h -5.1e-4 z"
       id="path4107"
       inkscape:connector-curvature="0" />
    <g
       id="g4119"
       style="fill:#710b48;fill-opacity:1;stroke:#000000;stroke-width:0.29104167;stroke-linejoin:round;stroke-miterlimit:4;stroke-dasharray:none"
       transform="translate(-84.19786,-600.64331)">
      <path
         inkscape:connector-curvature="0"
         id="path2392"
         d="m 411.02774,558.8651 -5.82653,5.98724 c 0.95433,3.0036 2.24462,6.03139 3.88761,9.01908 l 5.82911,-5.98671 c -1.64319,-2.9876 -2.93568,-6.01604 -3.89019,-9.01961 z"
         style="opacity:1;fill:#710b48;fill-opacity:1;stroke:#000000;stroke-width:0.29104167;stroke-linejoin:round;stroke-miterlimit:4;stroke-dasharray:none" />
      <path
         inkscape:connector-curvature="0"
         id="path2775"
         d="m 381.22798,558.88112 -5.82962,5.98879 v 9.03924 l 5.82962,-5.98827 z"
         style="opacity:1;fill:#710b48;fill-opacity:1;stroke:#000000;stroke-width:0.29104167;stroke-linejoin:round;stroke-miterlimit:4;stroke-dasharray:none" />
      <path
         inkscape:connector-curvature="0"
         id="path3156"
         d="m 359.86288,558.8651 -5.77742,5.93711 v 9.05785 l 5.77742,-5.93453 z"
         style="opacity:1;fill:#710b48;fill-opacity:1;stroke:#000000;stroke-width:0.29104167;stroke-linejoin:round;stroke-miterlimit:4;stroke-dasharray:none" />
      <path
         inkscape:connector-curvature="0"
         id="path3799"
         d="m 320.58467,558.83565 -3.35639,3.44733 v 7.55975 c 0.94222,1.46193 2.05309,2.77571 3.24322,4.00182 l 5.81205,-5.96966 c -1.48095,-1.52522 -2.80459,-3.22405 -3.89331,-5.10976 -0.72997,-1.26435 -1.30412,-2.58628 -1.80557,-3.92948 z"
         style="opacity:1;fill:#710b48;fill-opacity:1;stroke:#000000;stroke-width:0.29104167;stroke-linejoin:round;stroke-miterlimit:4;stroke-dasharray:none" />
      <path
         inkscape:connector-curvature="0"
         id="path3830"
         d="m 275.26599,558.8527 -5.8291,5.9893 c 0.50014,1.33741 1.07238,2.65428 1.79937,3.91346 1.09177,1.891 2.4191,3.59478 3.90519,5.1232 l 5.83065,-5.9893 c -1.48655,-1.52868 -2.8142,-3.2328 -3.90622,-5.12423 -0.72691,-1.25905 -1.29959,-2.57513 -1.79989,-3.91243 z"
         style="opacity:1;fill:#710b48;fill-opacity:1;stroke:#000000;stroke-width:0.29104167;stroke-linejoin:round;stroke-miterlimit:4;stroke-dasharray:none" />
      <path
         inkscape:connector-curvature="0"
         id="path3863"
         d="m 115.97803,560.83553 -5.77742,5.99033 v 6.8125 l 5.77742,-5.74952 z"
         style="opacity:1;fill:#710b48;fill-opacity:1;stroke:#000000;stroke-width:0.29104167;stroke-linejoin:round;stroke-miterlimit:4;stroke-dasharray:none" />
      <path
         inkscape:connector-curvature="0"
         id="path3877"
         d="m 197.3219,558.86046 -5.77742,5.93503 v 9.06405 l 5.77742,-5.93452 z"
         style="opacity:1;fill:#710b48;fill-opacity:1;stroke:#000000;stroke-width:0.29104167;stroke-linejoin:round;stroke-miterlimit:4;stroke-dasharray:none" />
      <path
         inkscape:connector-curvature="0"
         id="path3889"
         d="m 158.04937,558.85373 -5.82962,5.99034 c 0.49992,1.33695 1.07315,2.65263 1.79989,3.91139 1.0914,1.89036 2.41818,3.59362 3.90364,5.12165 l 5.83116,-5.98878 c -1.48608,-1.52842 -2.81341,-3.2322 -3.90518,-5.1232 -0.72674,-1.25876 -1.29965,-2.57442 -1.79989,-3.9114 z"
         style="opacity:1;fill:#710b48;fill-opacity:1;stroke:#000000;stroke-width:0.29104167;stroke-linejoin:round;stroke-miterlimit:4;stroke-dasharray:none" />
      <path
         inkscape:connector-curvature="0"
         id="path3906"
         d="m 95.200491,558.90489 -5.829618,5.99034 v 8.95914 l 5.829618,-5.98723 z"
         style="opacity:1;fill:#710b48;fill-opacity:1;stroke:#000000;stroke-width:0.29104167;stroke-linejoin:round;stroke-miterlimit:4;stroke-dasharray:none" />
      <path
         transform="scale(0.26458333)"
         id="path3869"
         d="m 821.77148,2121.6641 -19.29492,22.6406 v 21.4941 l 19.29492,-19.4453 z"
         style="opacity:1;fill:#710b48;fill-opacity:1;stroke:#000000;stroke-width:1.10000001;stroke-linejoin:round;stroke-miterlimit:4;stroke-dasharray:none"
         inkscape:connector-curvature="0" />
    </g>
    <g
       id="g4096"
       style="stroke:#000000;stroke-width:0.29104167;stroke-linejoin:round;stroke-miterlimit:4;stroke-dasharray:none"
       transform="translate(-84.19786,-600.64331)">
      <path
         id="path3978"
         d="m 115.97803,567.88884 -5.77742,5.74952 v 8.18606 l 5.83117,-5.98878 h -0.0537 z"
         style="opacity:1;fill:#0166a4;fill-opacity:1;stroke:#000000;stroke-width:0.29104167;stroke-linejoin:round;stroke-miterlimit:4;stroke-dasharray:none"
         inkscape:connector-curvature="0" />
      <path
         id="path2777"
         d="m 381.22798,567.92088 -5.82962,5.98827 v 7.9375 l 5.83118,-5.98982 h -0.003 z"
         style="opacity:1;fill:#0166a4;fill-opacity:1;stroke:#000000;stroke-width:0.29104167;stroke-linejoin:round;stroke-miterlimit:4;stroke-dasharray:none"
         inkscape:connector-curvature="0" />
      <path
         id="path3158"
         d="m 359.86287,567.92553 -5.77741,5.93452 v 1.97559 h -0.0522 v 6.00997 l 5.83067,-5.98878 v 0 z"
         style="opacity:1;fill:#0166a4;fill-opacity:1;stroke:#000000;stroke-width:0.29104167;stroke-linejoin:round;stroke-miterlimit:4;stroke-dasharray:none"
         inkscape:connector-curvature="0" />
      <path
         id="path3801"
         d="m 326.28354,567.87489 -5.81205,5.96966 c 4.86215,5.00918 11.57748,7.98142 18.72754,7.98142 h 9.05681 l 5.77742,-5.99033 h -9.00461 c -7.14967,0 -13.88238,-2.95265 -18.74511,-7.96075 z"
         style="opacity:1;fill:#0166a4;fill-opacity:1;stroke:#000000;stroke-width:0.29104167;stroke-linejoin:round;stroke-miterlimit:4;stroke-dasharray:none"
         inkscape:connector-curvature="0" />
      <path
         id="path3832"
         d="m 280.9721,567.88936 -5.83066,5.9893 c 4.86179,5.00027 11.58963,7.94731 18.73323,7.94731 h 17.52348 l 5.83013,-5.99033 H 299.7048 c -7.1431,0 -13.87085,-2.94664 -18.7327,-7.94628 z"
         style="opacity:1;fill:#0166a4;fill-opacity:1;stroke:#000000;stroke-width:0.29104167;stroke-linejoin:round;stroke-miterlimit:4;stroke-dasharray:none"
         inkscape:connector-curvature="0" />
      <path
         id="path3879"
         d="m 197.3219,567.92502 -5.77742,5.93452 v 1.9761 h -0.0522 v 6.01049 l 5.83065,-5.9893 h -0.001 z"
         style="opacity:1;fill:#0166a4;fill-opacity:1;stroke:#000000;stroke-width:0.29104167;stroke-linejoin:round;stroke-miterlimit:4;stroke-dasharray:none"
         inkscape:connector-curvature="0" />
      <path
         id="path3891"
         d="m 163.75444,567.88832 -5.83116,5.98879 c 4.86191,5.00123 11.59046,7.94886 18.73477,7.94886 h 9.05681 l 5.77743,-5.99033 h -9.00462 c -7.14357,0 -13.87143,-2.94703 -18.73323,-7.94732 z"
         style="opacity:1;fill:#0166a4;fill-opacity:1;stroke:#000000;stroke-width:0.29104167;stroke-linejoin:round;stroke-miterlimit:4;stroke-dasharray:none"
         inkscape:connector-curvature="0" />
      <path
         id="path3909"
         d="m 95.20049,567.86714 -5.829618,5.98723 v 19.7807 l 5.831169,-5.98878 h -0.0016 z"
         style="opacity:1;fill:#0166a4;fill-opacity:1;stroke:#000000;stroke-width:0.29104167;stroke-linejoin:round;stroke-miterlimit:4;stroke-dasharray:none"
         inkscape:connector-curvature="0" />
      <path
         id="path2394"
         d="m 414.91793,567.88471 -5.82912,5.98671 c 1.01132,1.83903 2.13376,3.66417 3.41014,5.45187 2.62755,3.68017 6.97767,4.45647 12.51241,2.06757 3.81984,-2.0763 7.37304,-2.0296 12.32329,0.0884 4.35266,1.8623 9.96656,1.46776 13.86633,-2.68821 l 5.3144,-5.47564 c -3.86771,3.66865 -9.18631,3.95544 -13.35112,2.17351 -4.95025,-2.11797 -8.50344,-2.16466 -12.32328,-0.0884 -5.53474,2.3889 -9.88486,1.6126 -12.51241,-2.06757 -1.27564,-1.78667 -2.39977,-3.6103 -3.41064,-5.44825 z"
         style="opacity:1;fill:#0166a4;fill-opacity:1;stroke:#000000;stroke-width:0.29104167;stroke-linejoin:round;stroke-miterlimit:4;stroke-dasharray:none"
         inkscape:connector-curvature="0" />
      <path
         id="path2779"
         d="m 381.22954,575.85683 -5.83118,5.98982 v 5.2e-4 h 15.00013 l 5.82962,-5.99033 z"
         style="opacity:1;fill:#0166a4;fill-opacity:1;stroke:#000000;stroke-width:0.29104167;stroke-linejoin:round;stroke-miterlimit:4;stroke-dasharray:none"
         inkscape:connector-curvature="0" />
      <path
         id="path3160"
         d="m 359.86393,575.85683 -5.83067,5.98878 v 0.002 h 14.99962 l 5.83012,-5.99033 z"
         style="opacity:1;fill:#0166a4;fill-opacity:1;stroke:#000000;stroke-width:0.29104167;stroke-linejoin:round;stroke-miterlimit:4;stroke-dasharray:none"
         inkscape:connector-curvature="0" />
      <path
         id="path3866"
         d="m 217.42766,576.35706 -5.83014,5.98981 v 5.3e-4 h 35.00975 c 6.01452,0 11.58452,-3.25434 14.56965,-8.46098 -2.59066,1.58443 -5.60451,2.47065 -8.74003,2.47065 z"
         style="opacity:1;fill:#0166a4;fill-opacity:1;stroke:#000000;stroke-width:0.29104167;stroke-linejoin:round;stroke-miterlimit:4;stroke-dasharray:none"
         inkscape:connector-curvature="0" />
      <path
         id="path3912"
         d="m 95.202041,587.64629 -5.831169,5.98878 v 0.002 h 15.000118 l 5.82962,-5.99034 z"
         style="opacity:1;fill:#0166a4;fill-opacity:1;stroke:#000000;stroke-width:0.29104167;stroke-linejoin:round;stroke-miterlimit:4;stroke-dasharray:none"
         inkscape:connector-curvature="0" />
      <path
         sodipodi:nodetypes="cscccscccc"
         inkscape:connector-curvature="0"
         id="path3900"
         d="m 143.73758,567.95085 c -4.8584,4.97168 -11.5815,7.88479 -18.70273,7.88479 h -9.00307 l -5.83117,5.98878 v 0.002 h 9.0041 c 7.1173,0 13.83774,-2.9088 18.69498,-7.876 l 5.77433,-5.93297 c 0.0214,-0.0218 0.0422,-0.0443 0.0636,-0.0661 z"
         style="opacity:1;fill:#0166a4;fill-opacity:1;stroke:#000000;stroke-width:0.29104167;stroke-linejoin:round;stroke-miterlimit:4;stroke-dasharray:none" />
    </g>
  </g>
</svg>
